<?xml version="1.0" encoding="UTF-8"?>
<svg xmlns="http://www.w3.org/2000/svg" xmlns:xlink="http://www.w3.org/1999/xlink" width="24pt" height="24pt" viewBox="0 0 24 24" version="1.1">
<g id="surface1">
<path style=" stroke:none;fill-rule:nonzero;fill:rgb(0%,0%,0%);fill-opacity:1;" d="M 16.554688 15.539062 C 12.558594 13.691406 6.96875 14.507812 6.734375 14.542969 C 6.207031 14.625 5.84375 15.113281 5.925781 15.640625 C 6.003906 16.167969 6.496094 16.527344 7.019531 16.449219 C 7.074219 16.441406 12.269531 15.679688 15.746094 17.285156 C 15.875 17.347656 16.015625 17.375 16.148438 17.375 C 16.511719 17.375 16.863281 17.167969 17.023438 16.816406 C 17.246094 16.332031 17.035156 15.761719 16.554688 15.539062 Z M 16.554688 15.539062 "/>
<path style=" stroke:none;fill-rule:nonzero;fill:rgb(0%,0%,0%);fill-opacity:1;" d="M 17.675781 12.066406 C 13.140625 9.972656 6.78125 10.902344 6.511719 10.941406 C 5.984375 11.019531 5.625 11.511719 5.703125 12.039062 C 5.78125 12.5625 6.273438 12.925781 6.796875 12.847656 C 6.859375 12.835938 12.863281 11.964844 16.867188 13.816406 C 17 13.878906 17.136719 13.90625 17.273438 13.90625 C 17.636719 13.90625 17.984375 13.699219 18.148438 13.347656 C 18.371094 12.863281 18.160156 12.292969 17.675781 12.066406 Z M 17.675781 12.066406 "/>
<path style=" stroke:none;fill-rule:nonzero;fill:rgb(0%,0%,0%);fill-opacity:1;" d="M 18.429688 8.445312 C 13.421875 6.128906 6.382812 7.15625 6.085938 7.199219 C 5.5625 7.28125 5.199219 7.769531 5.277344 8.296875 C 5.359375 8.820312 5.847656 9.183594 6.375 9.105469 C 6.441406 9.09375 13.140625 8.121094 17.621094 10.191406 C 17.753906 10.253906 17.890625 10.28125 18.027344 10.28125 C 18.390625 10.28125 18.738281 10.074219 18.902344 9.722656 C 19.125 9.238281 18.914062 8.667969 18.429688 8.445312 Z M 18.429688 8.445312 "/>
<path style=" stroke:none;fill-rule:nonzero;fill:rgb(0%,0%,0%);fill-opacity:1;" d="M 12 0 C 5.382812 0 0 5.382812 0 12 C 0 18.617188 5.382812 24 12 24 C 18.617188 24 24 18.617188 24 12 C 24 5.382812 18.617188 0 12 0 Z M 12 22.074219 C 6.445312 22.074219 1.925781 17.554688 1.925781 12 C 1.925781 6.445312 6.445312 1.925781 12 1.925781 C 17.554688 1.925781 22.074219 6.445312 22.074219 12 C 22.074219 17.554688 17.554688 22.074219 12 22.074219 Z M 12 22.074219 "/>
</g>
</svg>
